# Blender 5.0.0
# www.blender.org
o Cube
v -1.526189 -1.526189 1.993994
v -1.526189 1.526189 1.993994
v -0.208308 -0.208308 -0.006006
v -0.208308 0.208308 -0.006006
v 1.526189 -1.526189 1.993994
v 1.526189 1.526189 1.993994
v 0.208308 -0.208308 -0.006006
v 0.208308 0.208308 -0.006006
vn -0.8350 -0.0000 -0.5502
vn -0.0000 -0.0000 -1.0000
vn 0.8350 -0.0000 -0.5502
vn -0.0000 -0.8350 -0.5502
vn -0.0000 0.8350 -0.5502
vt 0.975410 0.024590
vt 0.975410 0.975410
vt 0.564888 0.564888
vt 0.564888 0.435112
vt 0.435112 0.564888
vt 0.435112 0.435112
vt 0.024590 0.975410
vt 0.024590 0.024590
s 0
f 1/1/1 2/2/1 4/3/1 3/4/1
f 3/4/2 4/3/2 8/5/2 7/6/2
f 7/6/3 8/5/3 6/7/3 5/8/3
f 3/4/4 7/6/4 5/8/4 1/1/4
f 8/5/5 4/3/5 2/2/5 6/7/5
